<svg width="20" height="20" viewBox="0 0 20 20" fill="none" xmlns="http://www.w3.org/2000/svg">
<mask id="mask0_6568_1868" style="mask-type:alpha" maskUnits="userSpaceOnUse" x="0" y="0" width="20" height="20">
<rect width="20" height="20" fill="#D9D9D9"/>
</mask>
<g mask="url(#mask0_6568_1868)">
<path d="M4.99967 16.6666C4.54134 16.6666 4.14898 16.5034 3.82259 16.177C3.4962 15.8506 3.33301 15.4583 3.33301 14.9999C3.33301 14.5416 3.4962 14.1492 3.82259 13.8228C4.14898 13.4964 4.54134 13.3333 4.99967 13.3333C5.45801 13.3333 5.85037 13.4964 6.17676 13.8228C6.50315 14.1492 6.66634 14.5416 6.66634 14.9999C6.66634 15.4583 6.50315 15.8506 6.17676 16.177C5.85037 16.5034 5.45801 16.6666 4.99967 16.6666ZM4.99967 11.6666C4.54134 11.6666 4.14898 11.5034 3.82259 11.177C3.4962 10.8506 3.33301 10.4583 3.33301 9.99992C3.33301 9.54158 3.4962 9.14922 3.82259 8.82284C4.14898 8.49645 4.54134 8.33325 4.99967 8.33325C5.45801 8.33325 5.85037 8.49645 6.17676 8.82284C6.50315 9.14922 6.66634 9.54158 6.66634 9.99992C6.66634 10.4583 6.50315 10.8506 6.17676 11.177C5.85037 11.5034 5.45801 11.6666 4.99967 11.6666ZM4.99967 6.66659C4.54134 6.66659 4.14898 6.50339 3.82259 6.177C3.4962 5.85061 3.33301 5.45825 3.33301 4.99992C3.33301 4.54159 3.4962 4.14922 3.82259 3.82284C4.14898 3.49645 4.54134 3.33325 4.99967 3.33325C5.45801 3.33325 5.85037 3.49645 6.17676 3.82284C6.50315 4.14922 6.66634 4.54159 6.66634 4.99992C6.66634 5.45825 6.50315 5.85061 6.17676 6.177C5.85037 6.50339 5.45801 6.66659 4.99967 6.66659ZM9.99967 6.66659C9.54134 6.66659 9.14898 6.50339 8.82259 6.177C8.4962 5.85061 8.33301 5.45825 8.33301 4.99992C8.33301 4.54159 8.4962 4.14922 8.82259 3.82284C9.14898 3.49645 9.54134 3.33325 9.99967 3.33325C10.458 3.33325 10.8504 3.49645 11.1768 3.82284C11.5031 4.14922 11.6663 4.54159 11.6663 4.99992C11.6663 5.45825 11.5031 5.85061 11.1768 6.177C10.8504 6.50339 10.458 6.66659 9.99967 6.66659ZM14.9997 6.66659C14.5413 6.66659 14.149 6.50339 13.8226 6.177C13.4962 5.85061 13.333 5.45825 13.333 4.99992C13.333 4.54159 13.4962 4.14922 13.8226 3.82284C14.149 3.49645 14.5413 3.33325 14.9997 3.33325C15.458 3.33325 15.8504 3.49645 16.1768 3.82284C16.5031 4.14922 16.6663 4.54159 16.6663 4.99992C16.6663 5.45825 16.5031 5.85061 16.1768 6.177C15.8504 6.50339 15.458 6.66659 14.9997 6.66659ZM9.99967 11.6666C9.54134 11.6666 9.14898 11.5034 8.82259 11.177C8.4962 10.8506 8.33301 10.4583 8.33301 9.99992C8.33301 9.54158 8.4962 9.14922 8.82259 8.82284C9.14898 8.49645 9.54134 8.33325 9.99967 8.33325C10.458 8.33325 10.8504 8.49645 11.1768 8.82284C11.5031 9.14922 11.6663 9.54158 11.6663 9.99992C11.6663 10.4583 11.5031 10.8506 11.1768 11.177C10.8504 11.5034 10.458 11.6666 9.99967 11.6666ZM10.833 16.6666V14.1041L15.4372 9.52075C15.5622 9.39575 15.7011 9.30547 15.8538 9.24992C16.0066 9.19436 16.1594 9.16658 16.3122 9.16658C16.4788 9.16658 16.6386 9.19784 16.7913 9.26034C16.9441 9.32284 17.083 9.41659 17.208 9.54159L17.9788 10.3124C18.09 10.4374 18.1768 10.5763 18.2393 10.7291C18.3018 10.8819 18.333 11.0346 18.333 11.1874C18.333 11.3402 18.3052 11.4964 18.2497 11.6562C18.1941 11.8159 18.1038 11.9583 17.9788 12.0833L13.3955 16.6666H10.833ZM12.083 15.4166H12.8747L15.3955 12.8749L15.0205 12.4791L14.6247 12.1041L12.083 14.6249V15.4166ZM15.0205 12.4791L14.6247 12.1041L15.3955 12.8749L15.0205 12.4791Z" fill="#1B94F6"/>
</g>
</svg>
