<svg width="20" height="20" viewBox="0 0 20 20" fill="none" xmlns="http://www.w3.org/2000/svg">
<g id="highlight_mouse_cursor">
<mask id="mask0_6568_2155" style="mask-type:alpha" maskUnits="userSpaceOnUse" x="0" y="0" width="20" height="20">
<rect id="Bounding box" width="20" height="20" fill="#D9D9D9"/>
</mask>
<g mask="url(#mask0_6568_2155)">
<path id="highlight_mouse_cursor_2" d="M10.7493 18.2917C10.6243 18.3195 10.4993 18.3334 10.3743 18.3334H9.99935C8.84657 18.3334 7.76324 18.1147 6.74935 17.6772C5.73546 17.2397 4.85352 16.6459 4.10352 15.8959C3.35352 15.1459 2.75977 14.264 2.32227 13.2501C1.88477 12.2362 1.66602 11.1529 1.66602 10.0001C1.66602 8.8473 1.88477 7.76397 2.32227 6.75008C2.75977 5.73619 3.35352 4.85425 4.10352 4.10425C4.85352 3.35425 5.73546 2.7605 6.74935 2.323C7.76324 1.8855 8.84657 1.66675 9.99935 1.66675C11.1521 1.66675 12.2355 1.8855 13.2493 2.323C14.2632 2.7605 15.1452 3.35425 15.8952 4.10425C16.6452 4.85425 17.2389 5.73619 17.6764 6.75008C18.1139 7.76397 18.3327 8.8473 18.3327 10.0001V10.3751C18.3327 10.5001 18.3188 10.6251 18.291 10.7501L16.666 10.2501V10.0001C16.666 8.13897 16.0202 6.56258 14.7285 5.27092C13.4368 3.97925 11.8605 3.33341 9.99935 3.33341C8.13824 3.33341 6.56185 3.97925 5.27018 5.27092C3.97852 6.56258 3.33268 8.13897 3.33268 10.0001C3.33268 11.8612 3.97852 13.4376 5.27018 14.7292C6.56185 16.0209 8.13824 16.6667 9.99935 16.6667H10.2493L10.7493 18.2917ZM17.1035 18.7501L13.541 15.1876L12.4993 18.3334L9.99935 10.0001L18.3327 12.5001L15.1868 13.5417L18.7493 17.1042L17.1035 18.7501Z" fill="#3A0070"/>
</g>
</g>
</svg>
