<svg width="20" height="20" viewBox="0 0 20 20" fill="none" xmlns="http://www.w3.org/2000/svg">
<g id="data_check">
<mask id="mask0_6568_2077" style="mask-type:alpha" maskUnits="userSpaceOnUse" x="0" y="0" width="20" height="20">
<rect id="Bounding box" width="20" height="20" fill="#D9D9D9"/>
</mask>
<g mask="url(#mask0_6568_2077)">
<path id="data_check_2" d="M12.75 8.54167L15.6875 5.58333L15.1042 5L12.75 7.35417L11.5625 6.16667L10.9792 6.77083L12.75 8.54167ZM2.5 16.6667V15H12.5V16.6667H2.5ZM13.3333 10.8333C12.1806 10.8333 11.1979 10.4271 10.3854 9.61458C9.57292 8.80208 9.16667 7.81944 9.16667 6.66667C9.16667 5.51389 9.57292 4.53125 10.3854 3.71875C11.1979 2.90625 12.1806 2.5 13.3333 2.5C14.4861 2.5 15.4688 2.90625 16.2812 3.71875C17.0938 4.53125 17.5 5.51389 17.5 6.66667C17.5 7.81944 17.0938 8.80208 16.2812 9.61458C15.4688 10.4271 14.4861 10.8333 13.3333 10.8333ZM2.5 10V8.33333H7.75C7.84722 8.63889 7.95833 8.93056 8.08333 9.20833C8.20833 9.48611 8.36111 9.75 8.54167 10H2.5ZM2.5 13.3333V11.6667H10.3333C10.6528 11.8611 10.9931 12.0243 11.3542 12.1563C11.7153 12.2882 12.0972 12.3819 12.5 12.4375V13.3333H2.5Z" fill="#EE5602"/>
</g>
</g>
</svg>
