<svg width="20" height="20" viewBox="0 0 20 20" fill="none" xmlns="http://www.w3.org/2000/svg">
<mask id="mask0_6568_1830" style="mask-type:alpha" maskUnits="userSpaceOnUse" x="0" y="0" width="20" height="20">
<rect width="20" height="20" fill="#D9D9D9"/>
</mask>
<g mask="url(#mask0_6568_1830)">
<path d="M10.7503 18.2917C10.6253 18.3195 10.5003 18.3334 10.3753 18.3334H10.0003C8.84755 18.3334 7.76421 18.1147 6.75033 17.6772C5.73644 17.2397 4.85449 16.6459 4.10449 15.8959C3.35449 15.1459 2.76074 14.264 2.32324 13.2501C1.88574 12.2362 1.66699 11.1529 1.66699 10.0001C1.66699 8.8473 1.88574 7.76397 2.32324 6.75008C2.76074 5.73619 3.35449 4.85425 4.10449 4.10425C4.85449 3.35425 5.73644 2.7605 6.75033 2.323C7.76421 1.8855 8.84755 1.66675 10.0003 1.66675C11.1531 1.66675 12.2364 1.8855 13.2503 2.323C14.2642 2.7605 15.1462 3.35425 15.8962 4.10425C16.6462 4.85425 17.2399 5.73619 17.6774 6.75008C18.1149 7.76397 18.3337 8.8473 18.3337 10.0001V10.3751C18.3337 10.5001 18.3198 10.6251 18.292 10.7501L16.667 10.2501V10.0001C16.667 8.13897 16.0212 6.56258 14.7295 5.27092C13.4378 3.97925 11.8614 3.33341 10.0003 3.33341C8.13921 3.33341 6.56283 3.97925 5.27116 5.27092C3.97949 6.56258 3.33366 8.13897 3.33366 10.0001C3.33366 11.8612 3.97949 13.4376 5.27116 14.7292C6.56283 16.0209 8.13921 16.6667 10.0003 16.6667H10.2503L10.7503 18.2917ZM17.1045 18.7501L13.542 15.1876L12.5003 18.3334L10.0003 10.0001L18.3337 12.5001L15.1878 13.5417L18.7503 17.1042L17.1045 18.7501Z" fill="#34A853"/>
</g>
</svg>
