<svg width="20" height="20" viewBox="0 0 20 20" fill="none" xmlns="http://www.w3.org/2000/svg">
<mask id="mask0_6568_2047" style="mask-type:alpha" maskUnits="userSpaceOnUse" x="0" y="0" width="20" height="20">
<rect width="20" height="20" fill="#D9D9D9"/>
</mask>
<g mask="url(#mask0_6568_2047)">
<path d="M14.167 17.5208C14.0559 17.5208 13.9448 17.5069 13.8337 17.4791C13.7225 17.4513 13.6184 17.4027 13.5212 17.3333L11.0212 15.8749C10.8267 15.7638 10.6774 15.6145 10.5732 15.427C10.4691 15.2395 10.417 15.0346 10.417 14.8124V11.8749C10.417 11.6527 10.4691 11.4478 10.5732 11.2603C10.6774 11.0728 10.8267 10.9235 11.0212 10.8124L13.5212 9.35408C13.6184 9.28464 13.7225 9.23603 13.8337 9.20825C13.9448 9.18047 14.0559 9.16658 14.167 9.16658C14.2781 9.16658 14.3857 9.18395 14.4899 9.21867C14.5941 9.25339 14.6948 9.29853 14.792 9.35408L17.292 10.8124C17.4864 10.9235 17.6392 11.0728 17.7503 11.2603C17.8614 11.4478 17.917 11.6527 17.917 11.8749V14.8124C17.917 15.0346 17.8614 15.2395 17.7503 15.427C17.6392 15.6145 17.4864 15.7638 17.292 15.8749L14.792 17.3333C14.6948 17.3888 14.5941 17.4339 14.4899 17.4687C14.3857 17.5034 14.2781 17.5208 14.167 17.5208ZM8.33366 9.99992C7.41699 9.99992 6.63227 9.67353 5.97949 9.02075C5.32671 8.36797 5.00033 7.58325 5.00033 6.66659C5.00033 5.74992 5.32671 4.9652 5.97949 4.31242C6.63227 3.65964 7.41699 3.33325 8.33366 3.33325C9.25033 3.33325 10.035 3.65964 10.6878 4.31242C11.3406 4.9652 11.667 5.74992 11.667 6.66659C11.667 7.58325 11.3406 8.36797 10.6878 9.02075C10.035 9.67353 9.25033 9.99992 8.33366 9.99992ZM1.66699 16.6666V14.3333C1.66699 13.8749 1.78505 13.4444 2.02116 13.0416C2.25727 12.6388 2.58366 12.3333 3.00033 12.1249C3.70866 11.7638 4.50727 11.4583 5.39616 11.2083C6.28505 10.9583 7.26421 10.8333 8.33366 10.8333H8.62533C8.70866 10.8333 8.79199 10.8471 8.87533 10.8749C8.76421 11.1249 8.67046 11.3853 8.59408 11.6562C8.51769 11.927 8.45866 12.2083 8.41699 12.4999H8.33366C7.34755 12.4999 6.46213 12.6249 5.67741 12.8749C4.89269 13.1249 4.25033 13.3749 3.75033 13.6249C3.62533 13.6944 3.52463 13.7916 3.44824 13.9166C3.37185 14.0416 3.33366 14.1805 3.33366 14.3333V14.9999H8.58366C8.66699 15.2916 8.7781 15.5798 8.91699 15.8645C9.05588 16.1492 9.20866 16.4166 9.37533 16.6666H1.66699ZM8.33366 8.33325C8.79199 8.33325 9.18435 8.17006 9.51074 7.84367C9.83713 7.51728 10.0003 7.12492 10.0003 6.66659C10.0003 6.20825 9.83713 5.81589 9.51074 5.4895C9.18435 5.16311 8.79199 4.99992 8.33366 4.99992C7.87533 4.99992 7.48296 5.16311 7.15658 5.4895C6.83019 5.81589 6.66699 6.20825 6.66699 6.66659C6.66699 7.12492 6.83019 7.51728 7.15658 7.84367C7.48296 8.17006 7.87533 8.33325 8.33366 8.33325ZM12.2087 11.5416L14.167 12.6874L16.1253 11.5416L14.167 10.4166L12.2087 11.5416ZM14.792 15.8749L16.667 14.7916V12.4999L14.792 13.6041V15.8749ZM11.667 14.7916L13.542 15.8958V13.6249L11.667 12.5208V14.7916Z" fill="#34A853"/>
</g>
</svg>
