<svg width="20" height="20" viewBox="0 0 20 20" fill="none" xmlns="http://www.w3.org/2000/svg">
<mask id="mask0_6568_1794" style="mask-type:alpha" maskUnits="userSpaceOnUse" x="0" y="0" width="20" height="20">
<rect width="20" height="20" fill="#D9D9D9"/>
</mask>
<g mask="url(#mask0_6568_1794)">
<path d="M5.00033 19.1667V12.3126L2.29199 7.91675L6.14616 1.66675H13.8545L17.7087 7.91675L15.0003 12.3126V19.1667L10.0003 17.5001L5.00033 19.1667ZM6.66699 16.8542L10.0003 15.7501L13.3337 16.8542V14.1667H6.66699V16.8542ZM7.08366 3.33341L4.25033 7.91675L7.08366 12.5001H12.917L15.7503 7.91675L12.917 3.33341H7.08366ZM9.12533 11.3126L6.16699 8.37508L7.35449 7.18758L9.12533 8.95841L12.6462 5.41675L13.8337 6.58341L9.12533 11.3126Z" fill="#EE5602"/>
</g>
</svg>
