<svg width="20" height="20" viewBox="0 0 20 20" fill="none" xmlns="http://www.w3.org/2000/svg">
<mask id="mask0_6568_1640" style="mask-type:alpha" maskUnits="userSpaceOnUse" x="0" y="0" width="20" height="20">
<rect width="20" height="20" fill="#D9D9D9"/>
</mask>
<g mask="url(#mask0_6568_1640)">
<path d="M5 16.6666C4.30556 16.6666 3.71528 16.4235 3.22917 15.9374C2.74306 15.4513 2.5 14.861 2.5 14.1666C2.5 13.4721 2.74306 12.8819 3.22917 12.3958C3.71528 11.9096 4.30556 11.6666 5 11.6666C5.69444 11.6666 6.28472 11.9096 6.77083 12.3958C7.25694 12.8819 7.5 13.4721 7.5 14.1666C7.5 14.861 7.25694 15.4513 6.77083 15.9374C6.28472 16.4235 5.69444 16.6666 5 16.6666ZM15 16.6666C14.3056 16.6666 13.7153 16.4235 13.2292 15.9374C12.7431 15.4513 12.5 14.861 12.5 14.1666C12.5 13.4721 12.7431 12.8819 13.2292 12.3958C13.7153 11.9096 14.3056 11.6666 15 11.6666C15.6944 11.6666 16.2847 11.9096 16.7708 12.3958C17.2569 12.8819 17.5 13.4721 17.5 14.1666C17.5 14.861 17.2569 15.4513 16.7708 15.9374C16.2847 16.4235 15.6944 16.6666 15 16.6666ZM10 8.33325C9.30556 8.33325 8.71528 8.0902 8.22917 7.60408C7.74306 7.11797 7.5 6.5277 7.5 5.83325C7.5 5.13881 7.74306 4.54853 8.22917 4.06242C8.71528 3.57631 9.30556 3.33325 10 3.33325C10.6944 3.33325 11.2847 3.57631 11.7708 4.06242C12.2569 4.54853 12.5 5.13881 12.5 5.83325C12.5 6.5277 12.2569 7.11797 11.7708 7.60408C11.2847 8.0902 10.6944 8.33325 10 8.33325Z" fill="#E6C100"/>
</g>
</svg>
